Coordinates
version=1
nRows=10
nColumns=40
inDegrees=yes

Units are S.I. units (second, meters, Newtons, ...)
Angles are in degrees.

endheader
time	pelvis_tilt	pelvis_list	pelvis_rotation	pelvis_tx	pelvis_ty	pelvis_tz	hip_flexion_r	hip_adduction_r	hip_rotation_r	knee_angle_r	knee_angle_r_beta	ankle_angle_r	subtalar_angle_r	mtp_angle_r	hip_flexion_l	hip_adduction_l	hip_rotation_l	knee_angle_l	knee_angle_l_beta	ankle_angle_l	subtalar_angle_l	mtp_angle_l	lumbar_extension	lumbar_bending	lumbar_rotation	arm_flex_r	arm_add_r	arm_rot_r	elbow_flex_r	pro_sup_r	wrist_flex_r	wrist_dev_r	arm_flex_l	arm_add_l	arm_rot_l	elbow_flex_l	pro_sup_l	wrist_flex_l	wrist_dev_l
     39.69664286	     -4.88885297	      1.54914608	     -8.12934563	      1.04079681	      0.92884118	      0.43106360	     32.45816829	     -6.39258577	     -4.94896859	     22.23021118	     22.23021118	      0.97967737	      0.88629034	      0.63403376	     -3.61736934	      2.07747434	    -12.00510114	      7.31204565	      7.31204565	     21.85988347	     -3.39487792	     17.46069863	    -14.14659056	     -1.88861803	      5.91255241	     -4.07895620	    -13.51762022	     -0.89042379	     27.03276528	     46.52981122	      0.00000000	      0.00000000	     16.85443425	    -23.04946254	     -9.78963581	    103.02325259	     48.32401376	      0.00000000	      0.00000000
     39.70828571	     -6.43461925	     -0.66584891	     -5.56642658	      1.03667511	      0.92258789	      0.43014321	     32.67151925	     -4.94823107	     -8.17656904	     19.68179587	     19.68179587	      1.46082885	      1.23668154	      4.08835187	     -0.68568185	     -1.41396069	    -11.73131914	     10.58316091	     10.58316091	     21.34476222	     -1.44779979	      7.58551760	    -13.17297059	      1.03124473	      4.30259160	     -6.26221383	    -13.95315857	     -1.03964436	     29.25246361	     46.40296040	      0.00000000	      0.00000000	     17.58276806	    -23.73540907	     -8.60196375	    105.38443427	     48.33418604	      0.00000000	      0.00000000
     39.71992857	     -9.84194369	     -6.05417112	     -0.92698964	      1.02658077	      0.91083915	      0.42781876	     34.98438105	     -1.49101913	    -13.51834187	     17.43862759	     17.43862759	      2.22168553	     -0.97413346	     11.97509097	      7.82207603	     -8.97502558	     -9.12502885	     18.68781392	     18.68781392	     21.40430147	      0.08904848	     -5.78872197	    -10.25118969	      7.62988926	      1.55199187	     -8.80969155	    -14.92647853	     -0.00090979	     32.65525539	     46.12049233	      0.00000000	      0.00000000	     19.69145121	    -23.62640666	     -7.46631172	    106.24448362	     48.36882497	      0.00000000	      0.00000000
     39.73157143	    -15.27836665	    -16.37846702	      5.53581936	      1.00843497	      0.88875494	      0.42566896	     41.11772846	      3.95673781	    -22.58378848	     15.38004520	     15.38004520	      1.95958506	     -5.55818692	     19.91246898	     25.81936458	    -20.55079532	     -1.47870430	     33.40490417	     33.40490417	     27.54500762	      7.13816488	     -5.86338956	     -3.43362510	     19.04424808	     -3.86211708	    -11.96355220	    -16.70084026	      0.76052299	     37.74316500	     45.81787032	      0.00000000	      0.00000000	     21.97964689	    -23.60124264	     -6.03553465	    108.10059831	     48.37100406	      0.00000000	      0.00000000
     39.74321429	    -20.76597874	    -28.77542552	     12.00908509	      0.98438462	      0.86059809	      0.42364183	     50.09505745	      7.27239209	    -34.52762596	     14.37709671	     14.37709671	      1.10837021	     -9.29288615	     24.96149598	     47.52173456	    -26.40794300	     15.11696878	     43.27301726	     43.27301726	     28.77704793	      9.95297052	     -7.77828523	      7.40391848	     31.20894617	    -11.57348624	    -18.06707891	    -20.39808876	      2.55874929	     48.73668551	     45.26871577	      0.00000000	      0.00000000	     26.02195245	    -22.70911922	     -3.16269204	    108.89946738	     48.27572855	      0.00000000	      0.00000000
     39.75485714	    -25.64849174	    -39.11542949	     16.23010295	      0.95784652	      0.83288923	      0.42330830	     59.40021133	      7.72894118	    -39.67003269	     14.22046818	     14.22046818	     -1.88426582	    -18.14336443	     26.63556564	     65.81474311	    -24.92213833	     30.23683458	     49.30655452	     49.30655452	     28.96361222	     10.76042205	     -7.37107620	     19.86774067	     39.54599234	    -19.31611189	    -25.79874942	    -23.89114781	      0.80623166	     61.47815382	     44.95272390	      0.00000000	      0.00000000	     31.47286032	    -21.15373746	      0.82970023	    108.69844499	     48.13307788	      0.00000000	      0.00000000
     39.76650000	    -31.33265507	    -45.00004928	     16.65969171	      0.93190817	      0.80902227	      0.42314072	     67.08634279	      5.38975288	    -39.91412363	     15.21235508	     15.21235508	     -2.41559372	    -19.79041979	     28.28514107	     77.60297127	    -20.10371422	     38.34885170	     53.63586630	     53.63586630	     28.92644104	      9.64189469	     -6.28778192	     30.42547129	     43.00695214	    -23.64654731	    -33.86515563	    -26.04576764	     -3.58647671	     73.01261637	     44.82698056	      0.00000000	      0.00000000	     36.87313850	    -18.86962228	      4.46320557	    107.58745917	     48.01323762	      0.00000000	      0.00000000
     39.77814286	    -36.85615511	    -48.07187603	     15.58028969	      0.90978897	      0.78904607	      0.42346202	     73.89573626	      1.38213527	    -39.94286085	     19.09235385	     19.09235385	     -1.80889875	    -19.86740610	     28.71249891	     86.32786552	    -16.35293649	     39.77319096	     57.33333920	     57.33333920	     28.92567929	     12.55097522	     -5.81959719	     38.23004722	     43.74691723	    -26.86665249	    -39.65512427	    -28.82646753	     -4.55881349	     81.70357439	     44.58063899	      0.00000000	      0.00000000	     40.46229244	    -17.71694400	      6.34565549	    107.30408815	     47.93606328	      0.00000000	      0.00000000
     39.78978571	    -40.58604899	    -49.53732059	     14.63614540	      0.89541775	      0.77570091	      0.42456409	     78.63129729	     -1.99321958	    -39.95138190	     23.38633151	     23.38633151	     -0.95631644	    -19.88610967	     28.81119446	     91.52768597	    -13.83731812	     39.87194852	     60.00538869	     60.00538869	     28.71145927	     14.28552847	     -5.89368260	     42.79481459	     43.57017807	    -28.25533346	    -43.29675839	    -30.00000844	     -5.80120345	     85.59779473	     44.49939259	      0.00000000	      0.00000000	     42.54569915	    -16.60642491	      7.44580932	    107.14726407	     47.89295866	      0.00000000	      0.00000000
     39.80142857	    -41.57808339	    -49.76186585	     14.38167291	      0.89199076	      0.77165933	      0.42690943	     80.21020472	     -3.06124697	    -39.95335530	     25.96126584	     25.96126584	     -0.16779490	    -19.88912756	     28.85131867	     93.06153417	    -13.37726796	     39.89252572	     61.46412142	     61.46412142	     28.54007664	     15.00968728	     -5.99012615	     43.82780445	     43.57280620	    -26.25859500	    -47.26647503	    -27.07453109	    -11.01389703	     88.73070310	     44.66090500	      0.00000000	      0.00000000	     43.88599939	    -14.43987009	      9.45044337	    105.22997838	     47.85219056	      0.00000000	      0.00000000
